<?xml version="1.0" encoding="UTF-8"?>
<svg id="Layer_1" data-name="Layer 1" xmlns="http://www.w3.org/2000/svg" xmlns:xlink="http://www.w3.org/1999/xlink" viewBox="0 0 660 232">
  <defs>
    <radialGradient id="radial-gradient" cx="-1885.07" cy="654.99" fx="-1885.07" fy="654.99" r=".5" gradientTransform="translate(2488953 864489.85) scale(1320 -1320)" gradientUnits="userSpaceOnUse">
      <stop offset="0" stop-color="#fff"/>
      <stop offset="1" stop-color="#fff" stop-opacity="0"/>
    </radialGradient>
  </defs>
  <g id="Background">
    <rect y="-101.65" width="660" height="435" style="fill: #1d328d;"/>
  </g>
  <g id="Gradient">
    <rect y="-536.65" width="1320" height="870" style="fill: url(#radial-gradient); isolation: isolate; opacity: .25;"/>
  </g>
  <g>
    <g>
      <path d="M262.19,155.08v-20.99h7.32c2.16,0,3.99.44,5.49,1.33s2.61,2.11,3.33,3.67,1.08,3.39,1.08,5.49c0,3.21-.85,5.77-2.54,7.66s-4.15,2.84-7.36,2.84h-7.32ZM266,151.7h3.34c2.04,0,3.57-.62,4.58-1.85s1.52-2.99,1.52-5.27-.51-4.03-1.52-5.27c-1.01-1.23-2.54-1.85-4.58-1.85h-3.34v14.24Z" style="fill: #cefbf4;"/>
      <path d="M293.05,155.37c-2.03,0-3.85-.43-5.45-1.3s-2.87-2.13-3.79-3.78-1.39-3.55-1.39-5.71.46-4.06,1.39-5.71c.93-1.64,2.19-2.9,3.79-3.76,1.6-.87,3.42-1.3,5.45-1.3s3.83.43,5.43,1.3c1.6.86,2.87,2.12,3.79,3.76.93,1.65,1.39,3.55,1.39,5.71s-.46,4.06-1.39,5.71-2.19,2.91-3.79,3.78-3.41,1.3-5.43,1.3ZM288.14,149.9c1.29,1.31,2.93,1.96,4.91,1.96s3.62-.65,4.91-1.96,1.93-3.08,1.93-5.32-.65-3.98-1.94-5.29-2.93-1.96-4.9-1.96c-.97,0-1.87.17-2.7.5s-1.56.8-2.18,1.41-1.1,1.37-1.45,2.29-.53,1.93-.53,3.05c0,2.24.65,4.01,1.94,5.32Z" style="fill: #cefbf4;"/>
      <path d="M317.24,155.37c-1.51,0-2.92-.25-4.23-.76s-2.43-1.22-3.38-2.14-1.69-2.06-2.23-3.41-.81-2.85-.81-4.48c0-2.16.46-4.06,1.39-5.71.93-1.64,2.19-2.9,3.79-3.76,1.6-.87,3.42-1.3,5.45-1.3,2.26,0,4.24.54,5.96,1.63s2.96,2.58,3.74,4.48l-3.53,1.33c-.52-1.24-1.32-2.21-2.42-2.89-1.09-.69-2.34-1.03-3.75-1.03-.97,0-1.87.17-2.7.5-.83.33-1.56.8-2.18,1.41s-1.1,1.37-1.45,2.29-.53,1.93-.53,3.05c0,2.24.65,4.01,1.94,5.31,1.29,1.3,2.93,1.96,4.91,1.96,1.41,0,2.66-.34,3.75-1.03,1.09-.69,1.9-1.65,2.42-2.89l3.53,1.33c-.77,1.91-2.02,3.41-3.74,4.5-1.72,1.08-3.71,1.63-5.96,1.63Z" style="fill: #cefbf4;"/>
      <path d="M342.87,137.46h-8.19v5.45h7.09v3.35h-7.09v8.82h-3.85v-20.99h12.04v3.37Z" style="fill: #cefbf4;"/>
      <path d="M344.5,155.08l8.19-10.96-7.91-10.03h4.63l5.54,7.29,5.52-7.29h4.63l-7.91,10.03,8.19,10.96h-4.83l-5.6-7.91-5.61,7.91h-4.83Z" style="fill: #cefbf4;"/>
      <path d="M368.18,148.81v-3.06h10.5v3.06h-10.5Z" style="fill: #cefbf4;"/>
      <path d="M392.34,134.09c1.95,0,3.53.64,4.73,1.93s1.8,2.87,1.8,4.75-.6,3.48-1.79,4.72c-1.2,1.24-2.78,1.86-4.74,1.86h-4.67v7.73h-3.81v-20.99h8.48ZM391.72,144.14c1.12,0,1.98-.31,2.57-.92.59-.62.89-1.45.89-2.5s-.3-1.85-.89-2.48-1.45-.94-2.56-.94h-4.06v6.84h4.06Z" style="fill: #cefbf4;"/>
      <path d="M406.67,151.7h6.81v3.38h-10.62v-20.99h3.81v17.61Z" style="fill: #cefbf4;"/>
      <path d="M424.65,155.37c-1.14,0-2.2-.16-3.16-.47s-1.81-.77-2.54-1.38c-.73-.61-1.3-1.39-1.71-2.37s-.62-2.07-.62-3.3v-13.77h3.81v13.26c0,1.56.39,2.72,1.16,3.49s1.79,1.14,3.06,1.14,2.28-.38,3.07-1.15c.79-.77,1.18-1.93,1.18-3.48v-13.26h3.79v13.77c0,1.24-.21,2.34-.62,3.31s-.98,1.75-1.71,2.36-1.58,1.06-2.54,1.38c-.96.31-2.02.47-3.17.47Z" style="fill: #cefbf4;"/>
      <path d="M444.88,155.37c-2.27,0-4.17-.52-5.71-1.57-1.54-1.04-2.47-2.5-2.79-4.35l3.91-.91c.18,1.17.69,2.08,1.54,2.72.85.64,1.92.96,3.19.96,1.06,0,1.94-.24,2.63-.72.69-.48,1.03-1.21,1.02-2.18,0-.29-.05-.57-.15-.83-.1-.26-.23-.48-.37-.67-.15-.19-.36-.38-.64-.56-.28-.18-.53-.33-.76-.46-.23-.12-.54-.25-.95-.39s-.74-.25-1.01-.33-.64-.19-1.1-.33c-.09-.03-.16-.05-.21-.06-.56-.17-1.01-.3-1.36-.42-.35-.11-.78-.27-1.27-.48s-.91-.41-1.22-.6c-.32-.2-.66-.44-1.01-.75s-.63-.62-.83-.96c-.2-.34-.37-.73-.51-1.19s-.21-.96-.21-1.49c0-1.26.32-2.35.97-3.27.65-.92,1.52-1.61,2.6-2.06s2.31-.67,3.69-.67c.95,0,1.85.1,2.7.31.85.21,1.65.52,2.39.93s1.37.98,1.89,1.68c.52.71.88,1.53,1.08,2.45l-3.66.91c-.21-1.05-.69-1.84-1.43-2.37-.74-.52-1.66-.78-2.76-.78-1.04,0-1.9.23-2.59.7-.69.46-1.04,1.17-1.04,2.1,0,.35.08.67.25.95s.38.52.64.71c.26.19.6.38,1.03.56.42.18.83.33,1.21.45.39.12.86.26,1.43.42.05,0,.09.02.12.03.85.24,1.52.45,2.01.62s1.1.43,1.82.79c.73.36,1.29.74,1.68,1.13s.75.92,1.05,1.57.45,1.37.45,2.17c0,1.05-.21,1.99-.63,2.81s-.99,1.47-1.72,1.96-1.54.85-2.45,1.1c-.9.24-1.88.37-2.92.37Z" style="fill: #cefbf4;"/>
    </g>
    <g id="SvgjsG11447">
      <path d="M262.29,115.33v-34.34h11.65c10.66,0,16.18,6.91,16.18,17.17s-5.33,17.17-16.18,17.17h-11.65ZM268.01,110.2h5.72c7.11,0,10.26-4.54,10.26-12.04s-3.36-12.04-10.26-12.04h-5.72v24.08h0ZM312.62,115.73c-9.87,0-17.37-6.71-17.37-17.57s7.5-17.57,17.37-17.57,17.37,6.71,17.37,17.57c-.2,10.86-7.5,17.57-17.37,17.57ZM312.62,110.4c6.51,0,11.65-4.54,11.65-12.24s-5.13-12.24-11.65-12.24-11.65,4.54-11.65,12.24c0,7.7,5.13,12.24,11.65,12.24ZM356.24,80.99v5.13h-8.49v29.21h-5.72v-29.21h-8.49v-5.13h22.7Z" style="fill: #cefbf4;"/>
    </g>
    <g id="SvgjsG11448">
      <path d="M406.83,115.74h-7.2l-2.4-26.61-9,26.61h-4.8l-9-26.61-2.4,26.61h-7.4l3-35.22h10.41l7.6,22.21,7.8-22.21h10.41l3,35.22ZM438.05,115.74l-2.6-7.2h-14.81l-2.6,7.2h-7.4l13.01-35.22h9l13.01,35.22h-7.6ZM422.84,102.33h10.61l-5.2-15.01-5.4,15.01ZM471.67,115.74l-11.01-15.01h-2.6v15.01h-7.4v-35.22h7.4v13.81h2.4l11.01-13.81h9l-13.61,16.81,14.01,18.41h-9.21ZM506.69,86.92h-13.01v8h11.61v6.4h-11.61v8h13.01v6.4h-20.41v-35.22h20.41v6.4h0Z" style="fill: #cefbf4;"/>
    </g>
  </g>
  <g id="SvgjsG11446">
    <path d="M184.28,123.83h-25.99c-2.73,0-4.97,2.25-4.97,4.97v25.99c0,2.73,2.25,4.97,4.97,4.97h25.99c2.73,0,4.97-2.25,4.97-4.97v-25.99c0-2.73-2.25-4.97-4.97-4.97Z" style="fill: #fff;"/>
    <path d="M202.33,159.85h25.99c2.73,0,4.97-2.25,4.97-4.97v-25.99c0-2.73-2.25-4.97-4.97-4.97h-25.99c-2.73,0-4.97,2.25-4.97,4.97v25.91c-.08,2.81,2.17,5.05,4.97,5.05Z" style="fill: #fff;"/>
    <path d="M189.25,84.77c0-2.73-2.25-4.97-4.97-4.97h-25.99c-2.73,0-4.97,2.25-4.97,4.97v25.99c0,2.73,2.25,4.97,4.97,4.97h25.99c2.73,0,4.97-2.25,4.97-4.97v-25.99h0Z" style="fill: #fff;"/>
    <path d="M241.31,102.82v-25.99c0-2.73-2.25-4.97-4.97-4.97h-25.99c-2.73,0-4.97,2.25-4.97,4.97v25.99c0,2.73,2.25,4.97,4.97,4.97h25.99c2.73,0,4.97-2.25,4.97-4.97Z" style="fill: #fff;"/>
  </g>
</svg>